<?xml version="1.0" encoding="utf-8"?>
<svg version="1.1" xmlns:xlink="http://www.w3.org/1999/xlink" width="38px" height="30px" xmlns="http://www.w3.org/2000/svg">
  <g transform="matrix(1 0 0 1 1 -11 )">
    <path d="M 35.084263392857146 27.0703125  C 35.21856398809524 26.93536931818182  35.285714285714285 26.775568181818183  35 26.59090909090909  L 35 10.227272727272728  C 34.83333333333334 10.738636363636363  34.34561011904763 11.207386363636363  33.822544642857146 11.633522727272728  C 30.033854166666668 14.559659090909088  27.022693452380956 16.960227272727273  24.7890625 18.835227272727273  C 24.068080357142858 19.446022727272723  23.48139880952381 19.921875  23.029017857142858 20.26278409090909  C 22.576636904761905 20.60369318181818  21.96521577380953 20.948153409090907  21.19475446428571 21.296164772727273  C 20.424293154761905 21.644176136363637  19.69977678571429 21.81818181818182  19.021205357142858 21.81818181818182  L 19 21.81818181818182  L 18.978794642857142 21.81818181818182  C 18.300223214285715 21.81818181818182  17.575706845238095 21.644176136363637  16.805245535714285 21.296164772727273  C 16.034784226190478 20.948153409090907  15.423363095238097 20.60369318181818  14.970982142857144 20.26278409090909  C 14.518601190476193 19.921875  13.931919642857144 19.446022727272723  13.2109375 18.835227272727273  C 10.97730654761905 16.960227272727273  7.966145833333335 14.559659090909088  4.177455357142857 11.633522727272728  C 3.6543898809523814 11.207386363636363  3.166666666666667 10.738636363636363  3 10.227272727272728  L 3 26.59090909090909  C 2.714285714285714 26.775568181818183  2.7814360119047623 26.93536931818182  2.915736607142857 27.0703125  C 3.0500372023809526 27.20525568181818  3.2090773809523814 27.272727272727273  3.392857142857143 27  L 34.607142857142854 27  C 34.79092261904762 27.272727272727273  34.94996279761905 27.20525568181818  35.084263392857146 27.0703125  Z M 34.29966517857143 6.999289772727272  C 34.95703125 5.969460227272724  35.285714285714285 5.035511363636363  35.285714285714285 4.197443181818182  L 35.285714285714285 3.963068181818181  L 35.285714285714285 3.6754261363636376  C 35.285714285714285 3.6754261363636376  35.28218005952381 3.5830965909090864  35.275111607142854 3.3984375  C 35.268043154761905 3.2137784090909074  35.24683779761905 3.1249999999999956  35.211495535714285 3.1321022727272716  C 35.176153273809526 3.139204545454545  35.137276785714285 3.075284090909088  35.09486607142857 2.940340909090909  C 35.052455357142854 2.805397727272724  34.988839285714285 2.75213068181818  34.904017857142854 2.7805397727272716  C 34.81919642857143 2.8089488636363633  34.7202380952381 2.791193181818181  34.607142857142854 3  L 3.392857142857143 3  C 3.2090773809523814 2.7272727272727284  3.0500372023809526 2.7947443181818143  2.915736607142857 2.9296875  C 2.7814360119047623 3.064630681818179  2.714285714285714 3.2244318181818166  2.714285714285714 3.409090909090909  C 2.714285714285714 5.795454545454547  3.753348214285714 7.812499999999996  5.831473214285714 9.460227272727272  C 8.559895833333336 11.61931818181818  11.394345238095239 13.870738636363637  14.334821428571429 16.214488636363637  C 14.419642857142856 16.28551136363636  14.667038690476193 16.495028409090907  15.077008928571429 16.843039772727273  C 15.486979166666668 17.191051136363637  15.812127976190478 17.45738636363636  16.052455357142858 17.642045454545457  C 16.29278273809524 17.826704545454543  16.60732886904762 18.050426136363633  16.99609375 18.313210227272727  C 17.38485863095238 18.575994318181817  17.741815476190478 18.77130681818182  18.066964285714285 18.899147727272727  C 18.392113095238095 19.026988636363637  18.69605654761905 19.09090909090909  18.978794642857142 19.09090909090909  L 19 19.09090909090909  L 19.021205357142858 19.09090909090909  C 19.303943452380956 19.09090909090909  19.607886904761905 19.026988636363637  19.93303571428571 18.899147727272727  C 20.25818452380953 18.77130681818182  20.61514136904762 18.575994318181817  21.00390625 18.313210227272727  C 21.39267113095238 18.050426136363633  21.707217261904763 17.826704545454543  21.947544642857142 17.642045454545457  C 22.18787202380953 17.45738636363636  22.513020833333336 17.191051136363637  22.92299107142857 16.843039772727273  C 23.33296130952381 16.495028409090907  23.580357142857142 16.28551136363636  23.66517857142857 16.214488636363637  C 26.605654761904763 13.870738636363637  29.440104166666668 11.61931818181818  32.168526785714285 9.460227272727272  C 32.931919642857146 8.849431818181817  33.642299107142854 8.029119318181817  34.29966517857143 6.999289772727272  Z M 37.003348214285715 1.001420454545453  C 37.66778273809524 1.6690340909090884  38 2.471590909090909  38 3.409090909090909  L 38 26.59090909090909  C 38 27.52840909090909  37.66778273809524 28.33096590909091  37.003348214285715 28.998579545454547  C 36.3389136904762 29.66619318181818  35.54017857142858 30  34.607142857142854 30  L 3.392857142857143 30  C 2.459821428571429 30  1.6610863095238098 29.66619318181818  0.9966517857142857 28.998579545454547  C 0.3322172619047619 28.33096590909091  0 27.52840909090909  0 26.59090909090909  L 0 3.409090909090909  C 0 2.471590909090909  0.3322172619047619 1.6690340909090884  0.9966517857142857 1.001420454545453  C 1.6610863095238098 0.33380681818181435  2.459821428571429 0  3.392857142857143 0  L 34.607142857142854 0  C 35.54017857142858 0  36.3389136904762 0.33380681818181435  37.003348214285715 1.001420454545453  Z " fill-rule="nonzero" fill="#ffffff" stroke="none" transform="matrix(1 0 0 1 -1 11 )" />
  </g>
</svg>