<?xml version="1.0" encoding="utf-8"?>
<svg version="1.1" xmlns:xlink="http://www.w3.org/1999/xlink" width="21px" height="21px" xmlns="http://www.w3.org/2000/svg">
  <g transform="matrix(1 0 0 1 -36 -646 )">
    <path d="M 17.30859375 8.900390625  C 17.47265625 8.736328125  17.5546875 8.53125  17.5546875 8.28515625  C 17.5546875 8.029947916666666  17.47265625 7.820312500000001  17.30859375 7.656250000000001  L 16.064453125 6.425781250000001  C 15.89127604166667 6.252604166666665  15.68619791666667 6.166015624999999  15.44921875 6.166015624999999  C 15.212239583333334 6.166015624999999  15.007161458333334 6.252604166666665  14.833984375 6.425781250000001  L 9.255859375 11.990234375000002  L 6.166015625 8.900390625  C 5.992838541666667 8.727213541666666  5.787760416666667 8.640625  5.55078125 8.640625  C 5.313802083333334 8.640625  5.108723958333333 8.727213541666666  4.935546875 8.900390625  L 3.69140625 10.130859375  C 3.52734375 10.294921875  3.4453125000000004 10.504557291666666  3.4453125 10.759765625000002  C 3.4453125000000004 11.005859375000002  3.52734375 11.210937500000002  3.69140625 11.375000000000002  L 8.640625 16.32421875  C 8.813802083333334 16.497395833333332  9.018880208333334 16.583984375  9.255859375 16.583984375  C 9.501953125 16.583984375  9.711588541666668 16.497395833333332  9.884765625 16.32421875  L 17.30859375 8.900390625  Z M 19.591796875 5.2294921875  C 20.530598958333332 6.838216145833331  21 8.59505208333333  21 10.5  C 21 12.404947916666668  20.530598958333332 14.161783854166664  19.591796875 15.7705078125  C 18.652994791666668 17.379231770833332  17.379231770833332 18.652994791666668  15.7705078125 19.591796875  C 14.161783854166668 20.530598958333336  12.404947916666668 21  10.5 21  C 8.595052083333334 21  6.838216145833334 20.530598958333336  5.2294921875 19.591796875  C 3.620768229166667 18.652994791666668  2.3470052083333335 17.379231770833332  1.408203125 15.7705078125  C 0.46940104166666663 14.161783854166664  0 12.404947916666668  0 10.5  C 0 8.59505208333333  0.46940104166666663 6.838216145833331  1.408203125 5.2294921875  C 2.3470052083333335 3.6207682291666665  3.620768229166667 2.3470052083333313  5.2294921875 1.4082031249999991  C 6.838216145833334 0.46940104166666485  8.595052083333334 0  10.5 0  C 12.404947916666668 0  14.161783854166668 0.46940104166666485  15.7705078125 1.4082031249999991  C 17.379231770833332 2.3470052083333313  18.652994791666668 3.6207682291666665  19.591796875 5.2294921875  Z " fill-rule="nonzero" fill="#36c20f" stroke="none" transform="matrix(1 0 0 1 36 646 )" />
  </g>
</svg>