<?xml version="1.0" encoding="utf-8"?>
<svg version="1.1" xmlns:xlink="http://www.w3.org/1999/xlink" width="65px" height="54px" xmlns="http://www.w3.org/2000/svg">
  <g transform="matrix(1 0 0 1 0 -14 )">
    <path d="M 17.61474609375 15.037769784172664  C 18.143717447916668 14.50899280575539  18.408203125 13.802158273381291  18.408203125 12.917266187050357  C 18.408203125 12.032374100719418  18.143717447916668 11.320143884892083  17.61474609375 10.780575539568344  C 17.085774739583336 10.241007194244604  16.387532552083336 9.971223021582732  15.52001953125 9.971223021582732  C 14.610188802083334 9.971223021582732  13.80615234375 10.246402877697843  13.10791015625 10.796762589928056  C 12.40966796875 11.347122302158274  12.060546875 12.05395683453237  12.060546875 12.917266187050357  C 12.060546875 13.758992805755394  12.40966796875 14.455035971223023  13.10791015625 15.00539568345324  C 13.80615234375 15.555755395683452  14.610188802083334 15.830935251798559  15.52001953125 15.830935251798559  C 16.387532552083336 15.830935251798559  17.085774739583336 15.566546762589926  17.61474609375 15.037769784172664  Z M 41.180419921875 30.98201438848921  C 41.719970703125 30.50719424460431  41.98974609375 29.9568345323741  41.98974609375 29.330935251798557  C 41.98974609375 28.726618705035964  41.719970703125 28.18705035971223  41.180419921875 27.712230215827333  C 40.640869140625 27.237410071942442  39.94791666666667 27  39.1015625 27  C 38.5302734375 27  38.006591796875 27.242805755395686  37.530517578125 27.72841726618705  C 37.054443359375 28.214028776978417  36.81640625 28.748201438848923  36.81640625 29.330935251798557  C 36.81640625 29.935251798561154  37.054443359375 30.480215827338125  37.530517578125 30.965827338129497  C 38.006591796875 31.451438848920866  38.5302734375 31.694244604316548  39.1015625 31.694244604316548  C 39.94791666666667 31.694244604316548  40.640869140625 31.4568345323741  41.180419921875 30.98201438848921  Z M 33.721923828125 15.037769784172664  C 34.240315755208336 14.50899280575539  34.49951171875 13.802158273381291  34.49951171875 12.917266187050357  C 34.49951171875 12.032374100719418  34.240315755208336 11.320143884892083  33.721923828125 10.780575539568344  C 33.20353190104167 10.241007194244604  32.510579427083336 9.971223021582732  31.64306640625 9.971223021582732  C 30.73323567708334 9.971223021582732  29.929199218750004 10.246402877697843  29.23095703125 10.796762589928056  C 28.532714843750004 11.347122302158274  28.183593750000004 12.05395683453237  28.18359375 12.917266187050357  C 28.183593750000004 13.758992805755394  28.532714843750004 14.455035971223023  29.23095703125 15.00539568345324  C 29.929199218750004 15.555755395683452  30.73323567708334 15.830935251798559  31.64306640625 15.830935251798559  C 32.510579427083336 15.830935251798559  33.20353190104167 15.566546762589926  33.721923828125 15.037769784172664  Z M 53.828125 30.98201438848921  C 54.378255208333336 30.50719424460431  54.65332031250001 29.9568345323741  54.6533203125 29.330935251798557  C 54.65332031250001 28.726618705035964  54.378255208333336 28.18705035971223  53.828125 27.712230215827333  C 53.27799479166667 27.237410071942442  52.59033203125 27  51.76513671875 27  C 51.19384765625 27  50.670166015625 27.242805755395686  50.194091796875 27.72841726618705  C 49.718017578125 28.214028776978417  49.47998046875 28.748201438848923  49.47998046875 29.330935251798557  C 49.47998046875 29.935251798561154  49.718017578125 30.480215827338125  50.194091796875 30.965827338129497  C 50.670166015625 31.451438848920866  51.19384765625 31.694244604316548  51.76513671875 31.694244604316548  C 52.59033203125 31.694244604316548  53.27799479166667 31.4568345323741  53.828125 30.98201438848921  Z M 41.878662109375 8.044964028776976  C 44.110921223958336 10.559352517985609  45.555013020833336 13.370503597122303  46.2109375 16.47841726618705  C 45.555013020833336 16.39208633093525  44.814453125 16.348920863309353  43.9892578125 16.348920863309353  C 40.413411458333336 16.348920863309353  37.12320963541667 17.17985611510791  34.11865234375 18.84172661870504  C 31.11409505208334 20.503597122302153  28.74959309895834 22.75359712230216  27.025146484375 25.59172661870504  C 25.300699869791668 28.429856115107913  24.4384765625 31.53237410071942  24.4384765625 34.899280575539564  C 24.4384765625 36.58273381294964  24.681803385416668 38.223021582733814  25.16845703125 39.82014388489209  C 24.427897135416668 39.884892086330936  23.70849609375 39.917266187050366  23.01025390625 39.917266187050366  C 22.460123697916668 39.917266187050366  21.93115234375 39.90107913669065  21.42333984375 39.86870503597122  C 20.91552734375 39.836330935251794  20.333658854166668 39.76618705035971  19.677734375 39.65827338129496  C 19.021809895833336 39.55035971223022  18.551025390625 39.47482014388489  18.265380859375 39.431654676258994  C 17.979736328125 39.38848920863308  17.403157552083336 39.2751798561151  16.53564453125 39.09172661870504  C 15.66813151041667 38.90827338129496  15.139160156250002 38.794964028776974  14.94873046875 38.75179856115108  L 6.9189453125 42.86330935251798  L 9.2041015625 35.805755395683455  C 3.0680338541666665 31.424460431654676  0 26.136690647482013  0 19.942446043165468  C 0 16.294964028776977  1.031494140625 12.938848920863302  3.094482421875 9.874100719424458  C 5.157470703125001 6.809352517985609  7.950439453125001 4.397482014388483  11.473388671875 2.638489208633095  C 14.996337890625002 0.8794964028776944  18.841959635416668 0  23.01025390625 0  C 26.734212239583336 0  30.251871744791668 0.7122302158273397  33.563232421875 2.136690647482013  C 36.874593098958336 3.5611510791366925  39.64640299479167 5.5305755395683445  41.878662109375 8.044964028776976  Z M 62.286376953125 26.109712230215827  C 64.095458984375 28.73201438848921  65 31.575539568345324  65 34.64028776978417  C 65 37.165467625899275  64.27530924479167 39.577338129496404  62.825927734375 41.87589928057554  C 61.376546223958336 44.17446043165468  59.41406250000001 46.26258992805755  56.9384765625 48.14028776978417  L 58.68408203125 54  L 52.3681640625 50.47122302158273  C 49.1943359375 51.26978417266187  46.888020833333336 51.66906474820144  45.44921875 51.66906474820144  C 41.873372395833336 51.66906474820144  38.58317057291667 50.90827338129497  35.57861328125 49.38669064748201  C 32.574055989583336 47.865107913669064  30.209554036458336 45.798561151079134  28.485107421875 43.18705035971223  C 26.760660807291668 40.57553956834532  25.898437500000004 37.72661870503597  25.8984375 34.64028776978417  C 25.898437500000004 31.55395683453237  26.760660807291668 28.70503597122302  28.485107421875 26.093525179856115  C 30.209554036458336 23.482014388489205  32.574055989583336 21.41546762589928  35.57861328125 19.893884892086334  C 38.58317057291667 18.37230215827338  41.873372395833336 17.611510791366904  45.44921875 17.611510791366904  C 48.855794270833336 17.611510791366904  52.061360677083336 18.37230215827338  55.06591796875 19.893884892086334  C 58.07047526041667 21.41546762589928  60.477294921875 23.487410071942445  62.286376953125 26.109712230215827  Z " fill-rule="nonzero" fill="#ffffff" stroke="none" transform="matrix(1 0 0 1 0 14 )" />
  </g>
</svg>